<svg xmlns="http://www.w3.org/2000/svg" width="48" height="48" fill="none"><path fill="#0062AD" d="M24 40c8.837 0 16-7.163 16-16S32.837 8 24 8 8 15.163 8 24s7.163 16 16 16Z"/><path fill="url(#a)" d="M24 40c8.837 0 16-7.163 16-16S32.837 8 24 8 8 15.163 8 24s7.163 16 16 16Z"/><path fill="#E9F0F8" d="M24 42c8.837 0 16-7.163 16-16s-7.163-16-16-16S8 17.163 8 26s7.163 16 16 16Z"/><path fill="url(#b)" d="M22.922 16.388a1.243 1.243 0 0 1 2.281 0l1.776 4.04a.63.63 0 0 0 .541.39l4.44.373a1.252 1.252 0 0 1 .692 2.202l-3.32 2.76a.64.64 0 0 0-.213.658l1.003 4.154a1.252 1.252 0 0 1-1.838 1.376l-3.95-2.264a.648.648 0 0 0-.649 0l-3.95 2.264a1.243 1.243 0 0 1-1.83-1.376l1.004-4.154a.665.665 0 0 0-.222-.657l-3.32-2.761a1.253 1.253 0 0 1 .701-2.202l4.439-.373a.656.656 0 0 0 .55-.39l1.865-4.04Z"/><path fill="url(#c)" d="M47.4 22.87a2.001 2.001 0 0 0-.18-2l-1.63-2.27a2 2 0 0 1-.37-1.3l.19-2.79a2 2 0 0 0-.91-1.81l-2.34-1.53a2.08 2.08 0 0 1-.81-1.08l-.83-2.67a2 2 0 0 0-1.5-1.36l-2.73-.59a2 2 0 0 1-1.15-.71L33.4 2.57a2 2 0 0 0-1.89-.73l-2.76.45a2.05 2.05 0 0 1-1.33-.25L25.01.63a2 2 0 0 0-2 0L20.6 2.04a2.05 2.05 0 0 1-1.33.25l-2.76-.45a2 2 0 0 0-1.89.73l-1.74 2.19a2 2 0 0 1-1.15.71L9 6.06a2 2 0 0 0-1.5 1.36l-.83 2.67a2.08 2.08 0 0 1-.81 1.08L3.52 12.7a2 2 0 0 0-.91 1.81l.19 2.79a2 2 0 0 1-.37 1.3L.8 20.87a2 2 0 0 0-.18 2l1.18 2.54a2 2 0 0 1 .13 1.34l-.7 2.71a2 2 0 0 0 .55 1.94l2 1.94a2 2 0 0 1 .6 1.21l.33 2.78a2 2 0 0 0 1.22 1.61l2.58 1.07a2 2 0 0 1 1 .91l1.31 2.48a2 2 0 0 0 1.72 1.06l2.79.07a2 2 0 0 1 1.26.49l2.12 1.83a2 2 0 0 0 2 .37l2.63-.94a2 2 0 0 1 1.36 0l2.63.94a2 2 0 0 0 2-.37l2.12-1.83a2 2 0 0 1 1.26-.49l2.79-.07a2 2 0 0 0 1.72-1.06l1.28-2.53c.217-.411.57-.733 1-.91l2.58-1.07a2 2 0 0 0 1.22-1.61l.33-2.78c.053-.461.265-.89.6-1.21l2-1.94a2 2 0 0 0 .55-1.94l-.7-2.71a2 2 0 0 1 .13-1.34l1.19-2.49ZM24 40.02a16 16 0 1 1 16-16 16 16 0 0 1-16 15.97v.03Z"/><defs><linearGradient id="a" x1="47.356" x2="22.231" y1="40.303" y2="9.413" gradientUnits="userSpaceOnUse"><stop stop-color="#003067"/><stop offset=".2" stop-color="#003F7C"/><stop offset=".47" stop-color="#004F90"/><stop offset=".74" stop-color="#00589D"/><stop offset="1" stop-color="#005BA1"/></linearGradient><linearGradient id="b" x1="37.949" x2="4.429" y1="7.054" y2="34.258" gradientUnits="userSpaceOnUse"><stop offset=".15" stop-color="#50E6FF"/><stop offset=".692" stop-color="#0078D4"/></linearGradient><linearGradient id="c" x1="39.585" x2="-10.479" y1="-21.511" y2="32.087" gradientUnits="userSpaceOnUse"><stop offset="0" stop-color="#50E6FF"/><stop offset=".623" stop-color="#0078D4"/></linearGradient></defs></svg>